<svg width="423" height="174" viewBox="0 0 423 174" fill="none" xmlns="http://www.w3.org/2000/svg">
<path d="M190.648 60.9121C191.767 62.0872 193.474 62.6748 195.768 62.6748C198.062 62.6748 199.741 62.0872 200.804 60.9121C201.868 59.681 202.399 58.1701 202.399 56.3794C202.399 54.4767 201.868 52.9379 200.804 51.7627C199.741 50.5876 198.062 50 195.768 50C193.474 50 191.767 50.5876 190.648 51.7627C189.584 52.9379 189.053 54.4767 189.053 56.3794C189.053 58.1701 189.584 59.681 190.648 60.9121Z" fill="white"/>
<path d="M137.362 68.1308L151.632 113.71H170.35L182.689 68.1308H171.442L162.157 104.141H160.175L149.366 68.1308H137.362Z" fill="white"/>
<path d="M228.94 115.137C222.673 115.137 217.748 113.822 214.167 111.191C210.642 108.505 208.795 104.812 208.627 100.112H219.119C219.287 101.678 220.155 103.105 221.721 104.392C223.288 105.679 225.751 106.323 229.108 106.323C231.906 106.323 234.116 105.819 235.739 104.812C237.418 103.805 238.257 102.434 238.257 100.699C238.257 99.1882 237.614 97.9851 236.327 97.0897C235.096 96.1944 232.969 95.6068 229.947 95.327L225.918 94.9073C220.826 94.3477 216.909 92.8928 214.167 90.5425C211.425 88.1922 210.054 85.0585 210.054 81.1413C210.054 78.0076 210.837 75.3775 212.404 73.2511C213.971 71.1246 216.126 69.5298 218.868 68.4666C221.665 67.3474 224.855 66.7878 228.437 66.7878C234.032 66.7878 238.565 68.0189 242.035 70.4811C245.504 72.9433 247.323 76.5527 247.491 81.3092H236.998C236.886 79.7424 236.103 78.3993 234.648 77.2801C233.193 76.161 231.095 75.6014 228.353 75.6014C225.89 75.6014 223.988 76.077 222.645 77.0283C221.302 77.9796 220.63 79.2107 220.63 80.7216C220.63 82.1766 221.162 83.2958 222.225 84.0792C223.344 84.8626 225.135 85.3942 227.597 85.674L231.626 86.0937C236.998 86.6533 241.195 88.1362 244.217 90.5425C247.295 92.9487 248.834 96.1944 248.834 100.279C248.834 103.301 247.994 105.931 246.316 108.17C244.693 110.352 242.398 112.059 239.433 113.29C236.467 114.521 232.969 115.137 228.94 115.137Z" fill="white"/>
<path d="M255.618 60.9121C256.738 62.0872 258.444 62.6748 260.739 62.6748C263.033 62.6748 264.712 62.0872 265.775 60.9121C266.838 59.681 267.37 58.1701 267.37 56.3794C267.37 54.4767 266.838 52.9379 265.775 51.7627C264.712 50.5876 263.033 50 260.739 50C258.444 50 256.738 50.5876 255.618 51.7627C254.555 52.9379 254.024 54.4767 254.024 56.3794C254.024 58.1701 254.555 59.681 255.618 60.9121Z" fill="white"/>
<path fill-rule="evenodd" clip-rule="evenodd" d="M299.283 115.304C295.254 115.304 291.701 114.661 288.623 113.374C285.545 112.087 282.943 110.352 280.816 108.17C278.69 105.931 277.067 103.413 275.948 100.615C274.885 97.8172 274.353 94.9073 274.353 91.8855V90.1228C274.353 86.9891 274.913 84.0232 276.032 81.2253C277.207 78.3714 278.858 75.8532 280.984 73.6708C283.167 71.4324 285.797 69.6977 288.875 68.4666C291.952 67.1795 295.422 66.536 299.283 66.536C303.144 66.536 306.614 67.1795 309.691 68.4666C312.769 69.6977 315.371 71.4324 317.498 73.6708C319.68 75.8532 321.331 78.3714 322.45 81.2253C323.569 84.0232 324.129 86.9891 324.129 90.1228V91.8855C324.129 94.9073 323.569 97.8172 322.45 100.615C321.387 103.413 319.792 105.931 317.666 108.17C315.539 110.352 312.937 112.087 309.859 113.374C306.782 114.661 303.256 115.304 299.283 115.304ZM299.283 105.316C302.137 105.316 304.543 104.7 306.502 103.469C308.46 102.182 309.943 100.475 310.951 98.3488C311.958 96.1664 312.461 93.7042 312.461 90.9622C312.461 88.1642 311.93 85.702 310.867 83.5756C309.859 81.3932 308.348 79.6864 306.334 78.4553C304.375 77.1682 302.025 76.5247 299.283 76.5247C296.541 76.5247 294.163 77.1682 292.148 78.4553C290.19 79.6864 288.679 81.3932 287.615 83.5756C286.552 85.702 286.021 88.1642 286.021 90.9622C286.021 93.7042 286.524 96.1664 287.532 98.3488C288.595 100.475 290.106 102.182 292.064 103.469C294.023 104.7 296.429 105.316 299.283 105.316Z" fill="white"/>
<path d="M340.389 76.105C339.988 77.1077 339.652 78.1936 339.382 79.3627V68.1308H330.148V113.71H341.816V86.9331C341.816 83.9673 342.683 81.617 344.418 79.8823C346.209 78.0916 348.531 77.1962 351.385 77.1962C354.183 77.1962 356.365 78.0636 357.932 79.7983C359.555 81.5331 360.366 83.7994 360.366 86.5974V113.71H372.034V87.6046C372.034 80.6657 370.635 75.4615 367.837 71.992C365.039 68.4666 360.926 66.7038 355.498 66.7038H354.994C351.357 66.7038 348.307 67.4873 345.845 69.0541C343.439 70.621 341.62 72.9713 340.389 76.105Z" fill="white"/>
<path d="M191.487 76.8605V113.71H203.155V68.1308H185.108V76.8605H191.487Z" fill="white"/>
<path d="M256.458 76.8605V113.71H268.125V68.1308H250.078V76.8605H256.458Z" fill="white"/>
<mask id="path-2-inside-1_5_1274" fill="white">
<path fill-rule="evenodd" clip-rule="evenodd" d="M86.9008 123.077C107.08 123.077 123.439 106.718 123.439 86.5385C123.439 66.3588 107.08 50 86.9008 50C66.7211 50 50.3623 66.3588 50.3623 86.5385C50.3623 106.718 66.7211 123.077 86.9008 123.077ZM113.791 82.7469C110.384 86.731 105.585 89.2121 100.268 89.2121C89.9318 89.2121 81.5529 79.8357 81.5529 68.2693C81.5529 65.3594 82.0832 62.5881 83.0417 60.0698C70.0899 62.0369 60.165 73.22 60.165 86.7211C60.165 90.6603 61.0099 94.4022 62.5284 97.7754C64.0688 96.3424 66.2336 95.4506 68.6313 95.4506C73.307 95.4506 77.0975 98.8421 77.0975 103.026C77.0975 105.835 75.3884 108.287 72.8498 109.595C76.9891 112.183 81.8815 113.679 87.1233 113.679C102.012 113.679 114.082 101.61 114.082 86.7211C114.082 85.3709 113.982 84.0438 113.791 82.7469Z"/>
</mask>
<path fill-rule="evenodd" clip-rule="evenodd" d="M86.9008 123.077C107.08 123.077 123.439 106.718 123.439 86.5385C123.439 66.3588 107.08 50 86.9008 50C66.7211 50 50.3623 66.3588 50.3623 86.5385C50.3623 106.718 66.7211 123.077 86.9008 123.077ZM113.791 82.7469C110.384 86.731 105.585 89.2121 100.268 89.2121C89.9318 89.2121 81.5529 79.8357 81.5529 68.2693C81.5529 65.3594 82.0832 62.5881 83.0417 60.0698C70.0899 62.0369 60.165 73.22 60.165 86.7211C60.165 90.6603 61.0099 94.4022 62.5284 97.7754C64.0688 96.3424 66.2336 95.4506 68.6313 95.4506C73.307 95.4506 77.0975 98.8421 77.0975 103.026C77.0975 105.835 75.3884 108.287 72.8498 109.595C76.9891 112.183 81.8815 113.679 87.1233 113.679C102.012 113.679 114.082 101.61 114.082 86.7211C114.082 85.3709 113.982 84.0438 113.791 82.7469Z" fill="white"/>
<path d="M113.791 82.7469L116.435 82.3561L115.577 76.5445L111.759 81.0093L113.791 82.7469ZM83.0417 60.0698L85.5404 61.0208L87.1701 56.7386L82.6402 57.4266L83.0417 60.0698ZM62.5284 97.7754L60.0905 98.8729L61.6205 102.272L64.3495 99.7329L62.5284 97.7754ZM72.8498 109.595L71.6253 107.218L67.4481 109.37L71.4323 111.862L72.8498 109.595ZM120.766 86.5385C120.766 105.242 105.604 120.403 86.9008 120.403V125.75C108.557 125.75 126.113 108.195 126.113 86.5385H120.766ZM86.9008 52.6735C105.604 52.6735 120.766 67.8354 120.766 86.5385H126.113C126.113 64.8823 108.557 47.3265 86.9008 47.3265V52.6735ZM53.0359 86.5385C53.0359 67.8354 68.1977 52.6735 86.9008 52.6735V47.3265C65.2446 47.3265 47.6888 64.8823 47.6888 86.5385H53.0359ZM86.9008 120.403C68.1977 120.403 53.0359 105.242 53.0359 86.5385H47.6888C47.6888 108.195 65.2446 125.75 86.9008 125.75V120.403ZM100.268 91.8857C106.453 91.8857 111.967 88.9935 115.823 84.4845L111.759 81.0093C108.801 84.4684 104.717 86.5386 100.268 86.5386V91.8857ZM78.8793 68.2693C78.8793 81.0216 88.1804 91.8857 100.268 91.8857V86.5386C91.6832 86.5386 84.2264 78.6499 84.2264 68.2693H78.8793ZM80.543 59.1188C79.4692 61.9402 78.8793 65.0338 78.8793 68.2693H84.2264C84.2264 65.685 84.6973 63.2359 85.5404 61.0208L80.543 59.1188ZM62.8386 86.7211C62.8386 74.5614 71.7781 64.4847 83.4431 62.7131L82.6402 57.4266C68.4016 59.5892 57.4915 71.8786 57.4915 86.7211H62.8386ZM64.9663 96.678C63.6001 93.643 62.8386 90.2746 62.8386 86.7211H57.4915C57.4915 91.0461 58.4198 95.1614 60.0905 98.8729L64.9663 96.678ZM68.6313 92.7771C65.5719 92.7771 62.7526 93.9153 60.7073 95.818L64.3495 99.7329C65.385 98.7695 66.8954 98.1242 68.6313 98.1242V92.7771ZM79.771 103.026C79.771 97.0937 74.4962 92.7771 68.6313 92.7771V98.1242C72.1179 98.1242 74.424 100.591 74.424 103.026H79.771ZM74.0742 111.972C77.365 110.276 79.771 106.982 79.771 103.026H74.424C74.424 104.688 73.4118 106.298 71.6253 107.218L74.0742 111.972ZM87.1233 111.006C82.3972 111.006 77.994 109.658 74.2673 107.328L71.4323 111.862C75.9842 114.708 81.3657 116.353 87.1233 116.353V111.006ZM111.408 86.7211C111.408 100.133 100.535 111.006 87.1233 111.006V116.353C103.488 116.353 116.755 103.086 116.755 86.7211H111.408ZM111.146 83.1376C111.318 84.3056 111.408 85.5021 111.408 86.7211H116.755C116.755 85.2397 116.646 83.782 116.435 82.3561L111.146 83.1376Z" fill="white" mask="url(#path-2-inside-1_5_1274)"/>
</svg>
